<?xml version="1.0" standalone="no"?>
<!DOCTYPE svg PUBLIC "-//W3C//DTD SVG 20010904//EN"
 "http://www.w3.org/TR/2001/REC-SVG-20010904/DTD/svg10.dtd">
<svg version="1.0" xmlns="http://www.w3.org/2000/svg"
 width="10039.000000pt" height="5905.000000pt" viewBox="0 0 10039.000000 5905.000000"
 preserveAspectRatio="xMidYMid meet">

<g transform="translate(0.000000,5905.000000) scale(0.100000,-0.100000)"
fill="#000000" stroke="none">
<path d="M52274 40933 c4 -10 2273 -5102 5043 -11316 l5037 -11298 492 3 c271
2 494 5 496 8 2 3 2 2010 0 4461 l-4 4457 -3101 6848 -3102 6849 -2434 3
c-2315 2 -2433 1 -2427 -15z"/>
<path d="M67493 34060 l-3102 -6849 -3 -4463 -3 -4463 495 -3 495 -2 5040
11305 c2772 6218 5042 11310 5043 11315 2 6 -894 10 -2430 10 l-2433 0 -3102
-6850z"/>
<path d="M79833 39031 c-458 -20 -835 -40 -839 -44 -8 -8 16 -18810 25 -18819
3 -3 916 -10 2028 -14 l2022 -7 -5 374 c-2 206 -8 2388 -14 4849 -5 2461 -12
4783 -15 5160 l-6 685 88 -90 c49 -49 158 -164 243 -255 85 -90 191 -203 236
-250 84 -89 521 -552 774 -820 80 -85 306 -324 501 -530 195 -207 613 -650
929 -985 316 -335 733 -776 925 -980 193 -204 573 -607 845 -895 273 -289 720
-763 996 -1055 1144 -1212 2130 -2257 3514 -3723 l1464 -1552 466 0 c256 0
732 3 1058 7 l592 6 0 4217 c0 2319 -3 6533 -7 9363 l-6 5147 -2012 0 -2012 0
-6 -82 c-4 -46 -7 -1159 -7 -2474 0 -3294 -12 -8365 -20 -8362 -3 2 -1416
1468 -3139 3258 -1724 1790 -3193 3316 -3265 3390 -71 74 -187 194 -256 265
-174 181 -367 382 -517 538 -71 72 -238 247 -373 387 -135 140 -303 316 -375
390 -134 139 -297 308 -515 535 -223 231 -392 406 -521 540 -70 71 -501 519
-959 995 l-832 865 -87 1 c-47 1 -460 -15 -918 -35z"/>
<path d="M36800 29467 l0 -9264 4023 -6 c2212 -4 5058 -10 6325 -14 l2302 -6
0 1831 0 1832 -687 0 c-805 0 -5604 -17 -6900 -24 l-893 -6 0 7460 0 7460
-2085 0 -2085 0 0 -9263z"/>
<path d="M21040 36810 l0 -1880 4315 0 4315 0 0 1880 0 1880 -4315 0 -4315 0
0 -1880z"/>
<path d="M15795 38668 c-3 -7 -4 -4178 -3 -9268 l3 -9255 2075 0 2075 0 0
9265 0 9265 -2073 3 c-1653 2 -2074 0 -2077 -10z"/>
<path d="M4850 29350 l0 -9270 2135 0 2135 0 -2 9268 -3 9267 -2132 3 -2133 2
0 -9270z"/>
<path d="M21020 29420 l0 -1880 3020 0 3020 0 -2 1878 -3 1877 -3017 3 -3018
2 0 -1880z"/>
<path d="M21057 23873 c-4 -3 -7 -849 -7 -1880 l0 -1873 4315 0 4315 0 0 1880
0 1880 -4308 0 c-2370 0 -4312 -3 -4315 -7z"/>
</g>
</svg>
